<svg xmlns="http://www.w3.org/2000/svg" xmlns:xlink="http://www.w3.org/1999/xlink" width="23.306121826171875" height="20.14285659790039" style=""><rect id="backgroundrect" width="100%" height="100%" x="0" y="0" fill="none" stroke="none" class="" style=""/>

<g class="currentLayer" style=""><title>Layer 1</title>
<path style="stroke: none; fill-rule: nonzero;" d="M11.57208883792514,3.6077407540946123 C11.389666302529514,3.6077407540946123 11.212608792438395,3.6787156376103667 11.083839943923836,3.807521434140307 L4.15714931096175,9.729966951995435 C4.068620899299788,9.793055587799335 4.017649725070976,9.892946264294906 4.017649725070976,10.000722515556884 C4.017649725070976,10.187359898046463 4.170562560990218,10.337195239844373 4.361033321109804,10.337195239844373 L6.07795130130393,10.337195239844373 L6.07795130130393,15.720758828444179 C6.07795130130393,16.091404395555756 6.386460172561861,16.393704277019157 6.764718493381581,16.393704277019157 L9.511787261692184,16.393704277019157 C9.890045582511904,16.393704277019157 10.198554453769837,16.091404395555756 10.198554453769837,15.720758828444179 L10.198554453769837,11.683086136994325 L12.945623222080442,11.683086136994325 L12.945623222080442,15.720758828444179 C12.945623222080442,16.091404395555756 13.254132093338372,16.393704277019157 13.632390414158095,16.393704277019157 L16.3794591824687,16.393704277019157 C16.757717503288422,16.393704277019157 17.066226374546353,16.091404395555756 17.066226374546353,15.720758828444179 L17.066226374546353,10.337195239844373 L18.78314435474048,10.337195239844373 C18.973615114860056,10.337195239844373 19.12652795077931,10.187359898046463 19.12652795077931,10.000722515556884 C19.12652795077931,9.892946264294906 19.075556776550496,9.793055587799335 18.98702836488853,9.729966951995435 L12.065702757230952,3.8101499590624432 C12.063020244578697,3.8101499590624432 12.063020244578697,3.807521434140307 12.06033773192644,3.807521434140307 C11.93156888341188,3.6787156376103667 11.754511373320765,3.6077407540946123 11.57208883792514,3.6077407540946123 zM11.57208883792514,3.6077407540946123 " id="svg_1" fill="#ffffff" fill-opacity="1" class=""/>
<rect fill="#242424" stroke-dashoffset="" fill-rule="nonzero" id="svg_4" x="2" y="2" width="0" height="1" style="color: rgb(0, 0, 0);"/></g></svg>